solid ascii
  facet normal 8.422714e-001 -5.390537e-001 0.000000e+000
    outer loop
      vertex   1.387307e+000 5.093617e-001 0.000000e+000
      vertex   1.714936e+000 1.021283e+000 0.000000e+000
      vertex   1.387307e+000 5.093617e-001 1.000000e+000
    endloop
  endfacet
  facet normal 8.422714e-001 -5.390537e-001 0.000000e+000
    outer loop
      vertex   1.387307e+000 5.093617e-001 1.000000e+000
      vertex   1.714936e+000 1.021283e+000 0.000000e+000
      vertex   1.714936e+000 1.021283e+000 1.000000e+000
    endloop
  endfacet
  facet normal 0.000000e+000 1.000000e+000 -0.000000e+000
    outer loop
      vertex   2.436746e+000 5.093617e-001 0.000000e+000
      vertex   1.387307e+000 5.093617e-001 0.000000e+000
      vertex   2.436746e+000 5.093617e-001 1.000000e+000
    endloop
  endfacet
  facet normal 0.000000e+000 1.000000e+000 -0.000000e+000
    outer loop
      vertex   2.436746e+000 5.093617e-001 1.000000e+000
      vertex   1.387307e+000 5.093617e-001 0.000000e+000
      vertex   1.387307e+000 5.093617e-001 1.000000e+000
    endloop
  endfacet
  facet normal 1.000000e+000 0.000000e+000 -0.000000e+000
    outer loop
      vertex   2.436746e+000 -6.219844e-001 0.000000e+000
      vertex   2.436746e+000 5.093617e-001 0.000000e+000
      vertex   2.436746e+000 -6.219844e-001 1.000000e+000
    endloop
  endfacet
  facet normal 1.000000e+000 -0.000000e+000 0.000000e+000
    outer loop
      vertex   2.436746e+000 -6.219844e-001 1.000000e+000
      vertex   2.436746e+000 5.093617e-001 0.000000e+000
      vertex   2.436746e+000 5.093617e-001 1.000000e+000
    endloop
  endfacet
  facet normal -3.478906e-002 -9.993947e-001 0.000000e+000
    outer loop
      vertex   8.190741e-001 -5.656731e-001 0.000000e+000
      vertex   2.436746e+000 -6.219844e-001 0.000000e+000
      vertex   8.190741e-001 -5.656731e-001 1.000000e+000
    endloop
  endfacet
  facet normal -3.478906e-002 -9.993947e-001 -1.109551e-016
    outer loop
      vertex   8.190741e-001 -5.656731e-001 1.000000e+000
      vertex   2.436746e+000 -6.219844e-001 0.000000e+000
      vertex   2.436746e+000 -6.219844e-001 1.000000e+000
    endloop
  endfacet
  facet normal 9.993947e-001 -3.478906e-002 0.000000e+000
    outer loop
      vertex   8.032211e-001 -1.021088e+000 0.000000e+000
      vertex   8.190741e-001 -5.656731e-001 0.000000e+000
      vertex   8.032211e-001 -1.021088e+000 1.000000e+000
    endloop
  endfacet
  facet normal 9.993947e-001 -3.478906e-002 0.000000e+000
    outer loop
      vertex   8.032211e-001 -1.021088e+000 1.000000e+000
      vertex   8.190741e-001 -5.656731e-001 0.000000e+000
      vertex   8.190741e-001 -5.656731e-001 1.000000e+000
    endloop
  endfacet
  facet normal 0.000000e+000 -1.000000e+000 0.000000e+000
    outer loop
      vertex   0.000000e+000 -1.021088e+000 0.000000e+000
      vertex   8.032211e-001 -1.021088e+000 0.000000e+000
      vertex   0.000000e+000 -1.021088e+000 1.000000e+000
    endloop
  endfacet
  facet normal 0.000000e+000 -1.000000e+000 0.000000e+000
    outer loop
      vertex   0.000000e+000 -1.021088e+000 1.000000e+000
      vertex   8.032211e-001 -1.021088e+000 0.000000e+000
      vertex   8.032211e-001 -1.021088e+000 1.000000e+000
    endloop
  endfacet
  facet normal -1.000000e+000 0.000000e+000 0.000000e+000
    outer loop
      vertex   0.000000e+000 1.021283e+000 0.000000e+000
      vertex   0.000000e+000 -1.021088e+000 0.000000e+000
      vertex   0.000000e+000 1.021283e+000 1.000000e+000
    endloop
  endfacet
  facet normal -1.000000e+000 -0.000000e+000 0.000000e+000
    outer loop
      vertex   0.000000e+000 1.021283e+000 1.000000e+000
      vertex   0.000000e+000 -1.021088e+000 0.000000e+000
      vertex   0.000000e+000 -1.021088e+000 1.000000e+000
    endloop
  endfacet
  facet normal 0.000000e+000 1.000000e+000 -0.000000e+000
    outer loop
      vertex   1.714936e+000 1.021283e+000 0.000000e+000
      vertex   0.000000e+000 1.021283e+000 0.000000e+000
      vertex   1.714936e+000 1.021283e+000 1.000000e+000
    endloop
  endfacet
  facet normal 0.000000e+000 1.000000e+000 -0.000000e+000
    outer loop
      vertex   1.714936e+000 1.021283e+000 1.000000e+000
      vertex   0.000000e+000 1.021283e+000 0.000000e+000
      vertex   0.000000e+000 1.021283e+000 1.000000e+000
    endloop
  endfacet
  facet normal -0.000000e+000 0.000000e+000 -1.000000e+000
    outer loop
      vertex   1.714936e+000 1.021283e+000 0.000000e+000
      vertex   1.387307e+000 5.093617e-001 0.000000e+000
      vertex   0.000000e+000 1.021283e+000 0.000000e+000
    endloop
  endfacet
  facet normal 0.000000e+000 -0.000000e+000 -1.000000e+000
    outer loop
      vertex   0.000000e+000 1.021283e+000 0.000000e+000
      vertex   1.387307e+000 5.093617e-001 0.000000e+000
      vertex   8.190741e-001 -5.656731e-001 0.000000e+000
    endloop
  endfacet
  facet normal 0.000000e+000 -0.000000e+000 -1.000000e+000
    outer loop
      vertex   0.000000e+000 -1.021088e+000 0.000000e+000
      vertex   8.190741e-001 -5.656731e-001 0.000000e+000
      vertex   8.032211e-001 -1.021088e+000 0.000000e+000
    endloop
  endfacet
  facet normal 0.000000e+000 0.000000e+000 -1.000000e+000
    outer loop
      vertex   0.000000e+000 -1.021088e+000 0.000000e+000
      vertex   0.000000e+000 1.021283e+000 0.000000e+000
      vertex   8.190741e-001 -5.656731e-001 0.000000e+000
    endloop
  endfacet
  facet normal -0.000000e+000 -0.000000e+000 -1.000000e+000
    outer loop
      vertex   2.436746e+000 5.093617e-001 0.000000e+000
      vertex   2.436746e+000 -6.219844e-001 0.000000e+000
      vertex   1.387307e+000 5.093617e-001 0.000000e+000
    endloop
  endfacet
  facet normal -0.000000e+000 -0.000000e+000 -1.000000e+000
    outer loop
      vertex   1.387307e+000 5.093617e-001 0.000000e+000
      vertex   2.436746e+000 -6.219844e-001 0.000000e+000
      vertex   8.190741e-001 -5.656731e-001 0.000000e+000
    endloop
  endfacet
  facet normal 0.000000e+000 0.000000e+000 1.000000e+000
    outer loop
      vertex   1.714936e+000 1.021283e+000 1.000000e+000
      vertex   0.000000e+000 1.021283e+000 1.000000e+000
      vertex   1.387307e+000 5.093617e-001 1.000000e+000
    endloop
  endfacet
  facet normal 0.000000e+000 0.000000e+000 1.000000e+000
    outer loop
      vertex   1.387307e+000 5.093617e-001 1.000000e+000
      vertex   0.000000e+000 1.021283e+000 1.000000e+000
      vertex   8.190741e-001 -5.656731e-001 1.000000e+000
    endloop
  endfacet
  facet normal 0.000000e+000 0.000000e+000 1.000000e+000
    outer loop
      vertex   2.436746e+000 -6.219844e-001 1.000000e+000
      vertex   1.387307e+000 5.093617e-001 1.000000e+000
      vertex   8.190741e-001 -5.656731e-001 1.000000e+000
    endloop
  endfacet
  facet normal 0.000000e+000 -0.000000e+000 1.000000e+000
    outer loop
      vertex   2.436746e+000 -6.219844e-001 1.000000e+000
      vertex   2.436746e+000 5.093617e-001 1.000000e+000
      vertex   1.387307e+000 5.093617e-001 1.000000e+000
    endloop
  endfacet
  facet normal -0.000000e+000 0.000000e+000 1.000000e+000
    outer loop
      vertex   0.000000e+000 1.021283e+000 1.000000e+000
      vertex   0.000000e+000 -1.021088e+000 1.000000e+000
      vertex   8.190741e-001 -5.656731e-001 1.000000e+000
    endloop
  endfacet
  facet normal -0.000000e+000 0.000000e+000 1.000000e+000
    outer loop
      vertex   8.190741e-001 -5.656731e-001 1.000000e+000
      vertex   0.000000e+000 -1.021088e+000 1.000000e+000
      vertex   8.032211e-001 -1.021088e+000 1.000000e+000
    endloop
  endfacet
endsolid
