# Blender v2.78 (sub 0) OBJ File: ''
# www.blender.org
o Callibration_model
v 0.000000 0.000000 25.400000
v 0.000000 0.000000 0.000000
v 0.000000 2.540000 25.400000
v 0.000000 2.540000 0.000000
v -25.400000 0.000000 0.000000
v -25.400000 2.540000 0.000000
v 0.000000 0.000000 -25.400000
v 0.000000 2.540000 -25.400000
v 25.400000 0.000000 0.000000
v 25.400000 2.540000 0.000000
vt 0.3455 0.3576
vt 0.3455 0.1837
vt 0.6545 0.3576
vt 0.6545 0.1837
vt 0.0122 0.7249
vt 0.0122 0.3770
vt 0.3212 0.7249
vt 0.3212 0.3770
vt 0.3455 0.0097
vt 0.6545 0.0097
vt 0.9878 0.2751
vt 0.9878 0.5211
vt 0.6788 0.2751
vt 0.0122 0.7443
vt 0.3212 0.7443
vt 0.3212 0.9903
vt 0.3212 0.0097
vt 0.3212 0.1837
vt 0.0122 0.0097
vt 0.0122 0.1837
vt 0.6545 0.3770
vt 0.6545 0.7249
vt 0.3455 0.3770
vt 0.3455 0.7249
vt 0.3212 0.3576
vt 0.0122 0.3576
vt 0.9878 0.7865
vt 0.6788 0.7865
vt 0.9878 0.5405
vt 0.9878 0.0097
vt 0.9878 0.2557
vt 0.6788 0.2557
vn 1.0000 0.0000 0.0000
vn -0.7071 0.0000 0.7071
vn 0.0000 0.0000 -1.0000
vn 0.0000 1.0000 0.0000
vn 0.0000 -1.0000 0.0000
vn -1.0000 0.0000 0.0000
vn 0.7071 0.0000 -0.7071
vn 0.0000 0.0000 1.0000
s off
f 1/1/1 2/2/1 3/3/1
f 3/3/1 2/2/1 4/4/1
f 5/5/2 1/6/2 6/7/2
f 6/7/2 1/6/2 3/8/2
f 2/2/3 5/9/3 4/4/3
f 4/4/3 5/9/3 6/10/3
f 4/11/4 6/12/4 3/13/4
f 5/14/5 2/15/5 1/16/5
f 7/17/6 2/18/6 8/19/6
f 8/19/6 2/18/6 4/20/6
f 9/21/7 7/22/7 10/23/7
f 10/23/7 7/22/7 8/24/7
f 2/18/8 9/25/8 4/20/8
f 4/20/8 9/25/8 10/26/8
f 4/27/4 10/28/4 8/29/4
f 9/30/5 2/31/5 7/32/5
